<svg xmlns:xlink="http://www.w3.org/1999/xlink" xmlns="http://www.w3.org/2000/svg" data-v-f6eecb15="" aria-hidden="true" fill="color:#fff" style="width: 21px; height: 21px;" width="1024"  height="1024" ><defs><symbol viewBox="0 0 1024 1024" id="icon-menu-database"><defs><style>#icon-menu-database .database-element{fill:none;stroke:var(--bt-menu-icon-color, #787a79);stroke-width:60px}</style></defs><path class="database-element" d="M925.85 243.42v560.29c0 68.77-185.81 124.51-415.03 124.51S95.79 872.48 95.79 803.71V243.42" stroke="#BBBBBB" fill="none" stroke-width="60px"></path><path class="database-element" d="M925.84 616.95c0 68.77-185.81 124.51-415.03 124.51S95.78 685.72 95.78 616.95M925.84 430.18c0 68.76-185.81 124.51-415.03 124.51S95.78 498.95 95.78 430.18M510.81 347.17c229.22 0 415.03-55.74 415.03-124.51S740.03 98.15 510.81 98.15 95.78 153.9 95.78 222.66 281.6 347.17 510.81 347.17Z" stroke="#BBBBBB" fill="none" stroke-width="60px"></path></symbol></defs><use href="#icon-menu-database"></use></svg>